<svg width="34" height="35" viewBox="0 0 34 35" fill="none" xmlns="http://www.w3.org/2000/svg">
<g clip-path="url(#clip0)">
<path d="M17 0.729004C7.6075 0.729004 0 8.429 0 17.9257C0 25.525 4.8705 31.9694 11.6237 34.2415C12.4737 34.4034 12.7854 33.8711 12.7854 33.4146C12.7854 33.0063 12.7712 31.9242 12.7642 30.4907C8.03533 31.5275 7.038 28.1836 7.038 28.1836C6.2645 26.1988 5.14675 25.668 5.14675 25.668C3.60683 24.6019 5.26575 24.6238 5.26575 24.6238C6.97283 24.7434 7.86958 26.3957 7.86958 26.3957C9.38542 29.025 11.849 28.2653 12.8208 27.8263C12.9738 26.7136 13.4116 25.9567 13.8975 25.5265C10.1221 25.0963 6.154 23.6175 6.154 17.0288C6.154 15.1519 6.81275 13.6178 7.90358 12.4146C7.71233 11.98 7.13858 10.2315 8.05233 7.86317C8.05233 7.86317 9.47608 7.40234 12.7273 9.6263C14.0873 9.24421 15.5323 9.05463 16.9773 9.04588C18.4223 9.05463 19.8673 9.24421 21.2273 9.6263C24.4573 7.40234 25.8811 7.86317 25.8811 7.86317C26.7948 10.2315 26.2211 11.98 26.0511 12.4146C27.1348 13.6178 27.7936 15.1519 27.7936 17.0288C27.7936 23.635 23.8198 25.089 20.0373 25.5119C20.6323 26.0282 21.1848 27.0826 21.1848 28.694C21.1848 30.9953 21.1636 32.8444 21.1636 33.403C21.1636 33.8536 21.4611 34.3917 22.3323 34.2196C29.1337 31.9621 34 25.5134 34 17.9257C34 8.429 26.3882 0.729004 17 0.729004Z" fill="black"/>
</g>
<defs>
<clipPath id="clip0">
<rect width="34" height="35" fill="white"/>
</clipPath>
</defs>
</svg>
