<svg width="74" height="73" viewBox="0 0 74 73" fill="none" xmlns="http://www.w3.org/2000/svg">
<path d="M74 49.4033C74 38.7629 66.7322 29.4663 56.4835 26.6649C55.8393 11.854 43.4254 0 28.2559 0C12.6753 0 0 12.504 0 27.874C0 32.8832 1.35159 37.7604 3.91815 42.0422L0.103882 55.645L13.8936 51.8828C17.8835 54.2103 22.3843 55.5214 27.0296 55.7191C29.8689 65.8299 39.2933 73 50.0801 73C54.3855 73 58.5724 71.8688 62.2512 69.7196L73.8956 72.897L70.6747 61.41C72.8533 57.7809 74 53.6506 74 49.4033ZM14.5779 47.258L6.32268 49.5108L8.60638 41.3671L8.08585 40.564C5.63277 36.7779 4.33594 32.3897 4.33594 27.874C4.33594 14.8627 15.0663 4.27734 28.2559 4.27734C41.4455 4.27734 52.1758 14.8627 52.1758 27.874C52.1758 40.8854 41.4455 51.4707 28.2559 51.4707C23.6783 51.4707 19.2306 50.1914 15.392 47.7715L14.5779 47.258ZM67.6773 66.7628L61.5517 65.0908L60.7336 65.616C57.5624 67.6483 53.878 68.7227 50.0801 68.7227C41.6024 68.7227 34.1528 63.3153 31.5135 55.5615C44.4953 54.085 54.8259 43.894 56.3232 31.087C64.1826 33.6913 69.6641 41.0402 69.6641 49.4033C69.6641 53.1499 68.575 56.7845 66.5149 59.9129L65.9825 60.7199L67.6773 66.7628Z" fill="#FFB347"/>
<path d="M29.1069 37.0508H32.2642V40.1519H29.1069V37.0508Z" fill="#FFB347" stroke="#FFB347"/>
<path d="M34.427 19.1035C34.427 20.353 33.9463 21.5062 33.0737 22.3512L28.191 27.0811V32.4498H32.3483V29.0187L35.8804 25.5973C37.5986 23.933 38.5843 21.5664 38.5843 19.1035C38.5843 14.251 34.8546 10.3037 30.2697 10.3037C25.6847 10.3037 21.9551 14.251 21.9551 19.1035H26.1124C26.1124 16.6772 27.9772 14.7036 30.2697 14.7036C32.5622 14.7036 34.427 16.6772 34.427 19.1035Z" fill="#FFB347"/>
</svg>
