<svg width="270" height="140" viewBox="0 0 270 140" fill="none" xmlns="http://www.w3.org/2000/svg">
<path d="M159.585 76.2044H148.589C148.532 76.2044 148.487 76.1574 148.487 76.1027V0.101651C148.487 0.0443092 148.534 0 148.589 0H151.774C156.145 0 159.686 3.55778 159.686 7.94441V76.1027C159.689 76.16 159.642 76.2044 159.585 76.2044Z" fill="#FFB347"/>
<path d="M148.459 77.3484C148.459 78.8315 149.656 80.0304 151.13 80.0304H153.443C156.875 80.0304 159.658 77.2363 159.658 73.7906V32.5933L148.459 43.8374V77.3484Z" fill="#F5A028"/>
<path d="M132.094 34.3057L106.261 49.2796C105.171 49.9104 104.499 51.0781 104.499 52.3422V80.2493C104.499 81.5134 105.171 82.6811 106.261 83.3119L132.094 98.2858L157.926 83.3119C159.017 82.6811 159.689 81.5134 159.689 80.2493V52.3422C159.689 51.0781 159.017 49.9104 157.926 49.2796L132.094 34.3057ZM146.688 76.8427L133.893 84.2606C132.779 84.907 131.408 84.907 130.295 84.2606L117.499 76.8427C116.386 76.1963 115.7 75.0052 115.7 73.7124V58.8791C115.7 57.589 116.386 56.3952 117.499 55.7488L130.295 48.3309C131.408 47.6845 132.779 47.6845 133.893 48.3309L146.688 55.7488C147.802 56.3952 148.487 57.5863 148.487 58.8791V73.7124C148.487 75.0026 147.802 76.1963 146.688 76.8427Z" fill="#FFB347"/>
<path d="M148.487 73.7518C148.487 75.0186 147.812 76.1915 146.72 76.8248L133.859 84.2792C132.766 84.9126 131.419 84.9126 130.323 84.2792L117.463 76.8248C116.37 76.1915 115.695 75.0186 115.695 73.7518V58.843C115.695 57.5763 116.37 56.4034 117.463 55.77L119.874 54.3704L108.616 47.9116L106.261 49.2774C105.168 49.9108 104.493 51.0837 104.493 52.3504V80.2445C104.493 81.5112 105.168 82.6841 106.261 83.3175L130.321 97.2645C131.414 97.8979 132.761 97.8979 133.856 97.2645L157.859 83.3513C158.988 82.6971 159.684 81.4851 159.684 80.1767V77.2106L148.485 70.7857V73.7518H148.487Z" fill="#F5A028"/>
<path d="M132.094 85.3035L117.468 76.8248C116.373 76.1888 115.698 75.0159 115.698 73.7466V58.843C115.698 57.5737 116.373 56.4008 117.468 55.7648L130.323 48.313C131.419 47.677 132.094 46.5041 132.094 45.2348V34.3008L106.269 49.2722C105.173 49.9081 104.499 51.081 104.499 52.3504V80.2392C104.499 81.5086 105.173 82.6815 106.269 83.3174L116.007 88.963V89.0021L130.632 97.4808C131.728 98.1168 132.403 99.2897 132.403 100.559V115.463C132.403 116.732 131.728 117.905 130.632 118.541L117.777 125.993C116.681 126.629 116.007 127.802 116.007 129.071V140L141.831 125.028C142.927 124.392 143.602 123.219 143.602 121.95V94.3713C143.602 92.9117 142.826 91.5616 141.567 90.8318" fill="black"/>
<path d="M45.5646 54.1694V76.8427C45.5646 78.8731 44.4821 79.9626 42.3145 80.106H3.62663C1.45899 79.96 0.376465 78.8731 0.376465 76.8427V47.2284C0.376465 45.503 1.45899 44.5803 3.62663 44.4656H35.8764L45.5646 54.1694ZM35.8764 57.4352L32.6471 54.172H10.0439V70.4048H35.8764V57.4352ZM20.8354 41.5281L18.9273 43.4439H11.9052L17.3464 37.9834H24.3893L29.8278 43.4439H22.7408L20.8354 41.5281Z" fill="black"/>
<path d="M96.7778 54.1701V80.1067H87.0896V57.4333L83.8602 54.1701H61.257V80.1067H51.5922V47.2291C51.5922 45.5037 52.6747 44.581 54.8423 44.4663H87.0922L96.7778 54.1701Z" fill="black"/>
<path d="M212.008 44.459V54.1627H176.487V57.426H212.008V67.1298H176.487V70.393H212.008V80.0968H170.07C167.902 79.9508 166.82 78.8639 166.82 76.8335V47.2244C166.82 45.4989 167.902 44.5763 170.07 44.4616H212.008V44.459Z" fill="#FFB347"/>
<path d="M245.821 69.8759H232.078V44.2964H221.51V69.8759V77.1479C221.51 78.7821 222.878 80.1062 224.568 80.1062H232.078H250.47L266.321 64.7595L269.065 62.1036V47.3694V44.2964H258.497V57.6022L245.821 69.8759Z" fill="#FFB347"/>
<path d="M15.2749 101.756L13.0397 107.433H11.734L10.3036 104.251C9.41575 106.219 8.93809 107.282 8.868 107.433H7.56222L5.33228 101.756H6.91842L8.26314 105.15L9.81034 101.756H10.802L12.3492 105.15L13.6939 101.756H15.2749Z" fill="black"/>
<path d="M25.441 107.42H17.7075V101.756H25.441V103.229H19.1795V103.857H24.0599V105.329H19.1795V105.939H25.441V107.42Z" fill="black"/>
<path d="M44.3579 105.634C44.3579 106.145 44.1892 106.57 43.8491 106.908C43.5116 107.247 43.0885 107.419 42.5848 107.419H37.0113V105.939H42.5719C42.7821 105.939 42.8886 105.837 42.8886 105.634C42.8886 105.431 42.7821 105.329 42.5719 105.329H38.3975C37.8991 105.329 37.4759 105.16 37.1333 104.818C36.7906 104.479 36.6193 104.049 36.6193 103.53C36.6193 103.02 36.7906 102.597 37.1333 102.259C37.4759 101.92 37.8965 101.753 38.3975 101.753H43.9763V103.226H38.4131C38.2028 103.226 38.0964 103.327 38.0964 103.53C38.0964 103.747 38.2028 103.854 38.4131 103.854H42.5874C43.0911 103.854 43.5116 104.023 43.8517 104.359C44.1892 104.701 44.3579 105.126 44.3579 105.634Z" fill="#FFB347"/>
<path d="M55.7746 107.433H54.3079V106.033H49.5158V107.433H48.0413V101.756H49.5158V104.553H54.3079V101.756H55.7746V107.433Z" fill="#FFB347"/>
<path d="M68.051 107.42H66.1741L65.3071 106.276H61.4936L60.707 107.42H58.8925L62.8746 101.769H63.6742L68.051 107.42ZM64.2427 104.925L63.3082 103.726L62.4541 104.925H64.2427Z" fill="#FFB347"/>
<path d="M79.1567 103.893C79.1567 104.714 78.7492 105.313 77.9314 105.697L78.7803 107.443H77.1345L76.4465 106.03C76.405 106.03 75.2238 106.03 72.8978 106.03V107.43H71.4233V101.753H76.3453C77.0722 101.753 77.7004 101.922 78.2326 102.264C78.8504 102.655 79.1567 103.197 79.1567 103.893ZM77.69 103.893C77.69 103.669 77.5135 103.494 77.1578 103.372C76.893 103.286 76.6231 103.241 76.3479 103.241H72.8978V104.552H76.3349C76.6205 104.552 76.893 104.508 77.1578 104.417C77.5109 104.297 77.69 104.122 77.69 103.893Z" fill="#FFB347"/>
<path d="M90.3116 107.42H82.5782V101.756H90.3116V103.229H84.0502V103.857H88.9306V105.329H84.0502V105.939H90.3116V107.42Z" fill="#FFB347"/>
<path d="M172.207 101.756L169.972 107.433H168.666L167.235 104.251C166.348 106.219 165.87 107.282 165.8 107.433H164.494L162.264 101.756H163.85L165.195 105.15L166.742 101.756H167.734L169.281 105.15L170.626 101.756H172.207Z" fill="black"/>
<path d="M182.373 107.419H174.639V101.755H182.373V103.228H176.111V103.856H180.992V105.329H176.111V105.939H182.373V107.419Z" fill="black"/>
<path d="M201.422 104.591C201.422 105.406 201.154 106.081 200.622 106.618C200.09 107.153 199.418 107.421 198.61 107.421H193.688V104.593V101.757H198.61C199.42 101.757 200.09 102.026 200.622 102.56C201.154 103.092 201.422 103.769 201.422 104.591ZM199.952 104.591C199.952 104.176 199.83 103.848 199.584 103.605C199.337 103.363 199.01 103.238 198.597 103.23H195.16V105.941H198.597C199.01 105.933 199.34 105.81 199.584 105.573C199.828 105.336 199.952 105.008 199.952 104.591Z" fill="#FFB347"/>
<path d="M212.372 107.419H204.638V101.755H212.372V103.228H206.113V103.856H210.993V105.329H206.113V105.939H212.374V107.419H212.372Z" fill="#FFB347"/>
<path d="M224.321 101.755L220.339 107.432H219.526L215.544 101.755H217.358L219.934 105.391L222.504 101.755H224.321Z" fill="#FFB347"/>
<path d="M235.273 107.419H227.54V101.755H235.273V103.228H229.012V103.856H233.892V105.329H229.012V105.939H235.273V107.419Z" fill="black"/>
<path d="M246.348 107.419H238.955V101.755H240.429V105.939H246.348V107.419Z" fill="black"/>
<path d="M258.486 104.591C258.486 105.407 258.219 106.082 257.687 106.619C257.155 107.153 256.482 107.422 255.667 107.422H252.311C251.498 107.422 250.823 107.153 250.286 106.619C249.748 106.085 249.481 105.41 249.481 104.591C249.481 103.77 249.748 103.092 250.286 102.558C250.823 102.024 251.498 101.755 252.311 101.755H255.667C256.48 101.755 257.152 102.024 257.687 102.558C258.222 103.092 258.486 103.77 258.486 104.591ZM257.02 104.591C257.02 104.177 256.898 103.848 256.651 103.606C256.404 103.364 256.075 103.238 255.657 103.231H252.313C251.895 103.238 251.566 103.364 251.322 103.606C251.077 103.848 250.955 104.177 250.955 104.591C250.955 105.011 251.077 105.339 251.322 105.579C251.566 105.819 251.895 105.939 252.313 105.939H255.657C256.075 105.939 256.404 105.819 256.651 105.579C256.898 105.339 257.02 105.008 257.02 104.591Z" fill="black"/>
<path d="M269.847 103.893C269.847 104.622 269.527 105.178 268.886 105.558C268.362 105.874 267.71 106.03 266.929 106.03H263.585V107.419H262.111V101.755H266.929C267.71 101.755 268.362 101.907 268.886 102.209C269.527 102.589 269.847 103.152 269.847 103.893ZM268.38 103.893C268.38 103.676 268.253 103.512 267.996 103.395C267.778 103.283 267.508 103.228 267.186 103.228H263.588V104.539H267.186C267.508 104.539 267.778 104.49 267.996 104.39C268.253 104.271 268.38 104.106 268.38 103.893Z" fill="black"/>
</svg>
