<svg width="73" height="73" viewBox="0 0 73 73" fill="none" xmlns="http://www.w3.org/2000/svg">
<g clip-path="url(#clip0)">
<g filter="url(#filter0_d)">
<path fill-rule="evenodd" clip-rule="evenodd" d="M71.7733 40.6722C71.5249 40.4688 71.23 40.3302 70.915 40.2687C69.0621 42.1155 66.8011 44.0606 64.7936 45.3685C63.8675 45.9839 62.702 46.2912 61.9309 46.2912C60.1551 46.2912 59.3835 44.598 59.1519 41.9061C58.8426 38.2916 58.6348 33.9613 58.6348 27.2691C58.6348 20.4051 57.0769 15.7396 52.9276 15.3736C52.7522 15.3584 52.5748 15.3473 52.3902 15.3473C49.8428 15.3473 48.6074 16.6552 46.9862 19.9625C45.5972 22.808 43.4356 26.9614 39.4226 34.8068C35.949 41.5766 32.0896 47.5768 28.7692 51.7297C27.8445 52.8804 27.114 53.6713 26.4271 54.1224C25.9683 54.4246 25.5278 54.5756 25.0644 54.5756C23.754 54.5756 22.7984 53.4705 22.479 50.8952C22.4029 50.2833 22.3624 49.5888 22.3624 48.8066C22.3624 43.4989 24.3699 34.8849 27.8374 22.193C30.3848 12.9636 29.3045 6.65723 23.7464 6.65723H23.684L23.6805 6.65824C22.4217 6.67345 21.3789 7.12869 20.3731 7.92053C19.3836 8.69971 18.393 10.3828 17.4684 12.6463C16.4317 15.1932 10.0933 27.9058 0.00715622 34.455C-0.111469 36.9451 1.29784 39.4332 4.15396 39.7034C6.75459 39.9498 8.59986 38.8538 10.9774 37.2574C10.6587 38.6785 10.3448 40.1007 10.0355 41.5238L9.705 43.0376C9.39147 44.464 9.1517 45.9056 8.98666 47.3568C7.56367 60.0699 13.4559 66.3439 20.3564 66.3439C21.5097 66.3439 22.6529 66.207 23.7869 65.918C31.3901 63.9896 38.7103 55.2686 47.373 35.1921C47.2412 37.376 47.228 39.415 47.3223 41.3084C47.8926 52.8145 52.444 56.2668 58.8741 56.2668C63.7372 56.2668 68.2911 53.729 70.6068 50.5753C72.305 48.3448 72.9995 45.8831 72.9995 43.9597C72.9995 42.4673 72.5261 41.2754 71.7728 40.6707" fill="black"/>
</g>
</g>
<defs>
<filter id="filter0_d" x="-3.99976" y="6.65723" width="80.9993" height="67.6866" filterUnits="userSpaceOnUse" color-interpolation-filters="sRGB">
<feFlood flood-opacity="0" result="BackgroundImageFix"/>
<feColorMatrix in="SourceAlpha" type="matrix" values="0 0 0 0 0 0 0 0 0 0 0 0 0 0 0 0 0 0 127 0"/>
<feOffset dy="4"/>
<feGaussianBlur stdDeviation="2"/>
<feColorMatrix type="matrix" values="0 0 0 0 0 0 0 0 0 0 0 0 0 0 0 0 0 0 0.25 0"/>
<feBlend mode="normal" in2="BackgroundImageFix" result="effect1_dropShadow"/>
<feBlend mode="normal" in="SourceGraphic" in2="effect1_dropShadow" result="shape"/>
</filter>
<clipPath id="clip0">
<rect width="73" height="73" fill="white"/>
</clipPath>
</defs>
</svg>
