<svg width="74" height="50" viewBox="0 0 74 50" fill="none" xmlns="http://www.w3.org/2000/svg">
<path d="M72.7472 5.96956C71.9681 5.46322 70.995 5.41699 70.1757 5.84733L52.857 14.95V8.33333C52.857 3.73096 49.3073 0 44.9285 0H7.92856C3.54973 0 0 3.73096 0 8.33333V41.6667C0 46.269 3.54973 50 7.92856 50H44.9285C49.3073 50 52.857 46.269 52.857 41.6667V35.05L70.1757 44.1667C71.4814 44.8524 73.0687 44.2959 73.7212 42.9235C73.9067 42.5334 74.0023 42.1027 74 41.6667V8.33333C74.0004 7.37044 73.5264 6.47607 72.7472 5.96956ZM47.5714 41.6667C47.5714 43.2008 46.3881 44.4445 44.9285 44.4445H7.92856C6.4689 44.4445 5.28566 43.2008 5.28566 41.6667V8.33333C5.28566 6.79915 6.4689 5.5555 7.92856 5.5555H44.9285C46.3881 5.5555 47.5714 6.79915 47.5714 8.33333V41.6667ZM68.7141 37.1724L52.857 28.839V21.1613L68.7141 12.828V37.1724Z" fill="black"/>
<path d="M26.4289 13.8892C20.5904 13.8892 15.8574 18.8638 15.8574 25.0003C15.8574 31.1369 20.5904 36.1115 26.4289 36.1115C32.2674 36.1115 37.0004 31.1369 37.0004 25.0003C37.0004 18.8638 32.2672 13.8892 26.4289 13.8892ZM26.4289 30.5558C23.5097 30.5558 21.1432 28.0685 21.1432 25.0003C21.1432 21.9321 23.5097 19.4448 26.4289 19.4448C29.3481 19.4448 31.7145 21.9321 31.7145 25.0003C31.7145 28.0685 29.3481 30.5558 26.4289 30.5558Z" fill="black"/>
</svg>
