<svg width="35" height="35" viewBox="0 0 35 35" fill="none" xmlns="http://www.w3.org/2000/svg">
<g clip-path="url(#clip0)">
<path d="M34.2256 8.64632L34.2693 8.93215C33.8464 7.43153 32.7045 6.27361 31.2535 5.85215L31.2229 5.84486C28.4943 5.10402 17.5145 5.10402 17.5145 5.10402C17.5145 5.10402 6.56244 5.08944 3.80619 5.84486C2.32744 6.27361 1.18411 7.43153 0.768482 8.90153L0.761191 8.93215C-0.258184 14.2565 -0.265476 20.6542 0.806399 26.3549L0.761191 26.0661C1.18411 27.5667 2.32598 28.7247 3.77702 29.1461L3.80765 29.1534C6.53327 29.8957 17.516 29.8957 17.516 29.8957C17.516 29.8957 28.4666 29.8957 31.2243 29.1534C32.7045 28.7247 33.8479 27.5667 34.2635 26.0967L34.2708 26.0661C34.7345 23.5899 34.9999 20.7403 34.9999 17.8294C34.9999 17.723 34.9999 17.6151 34.9985 17.5072C34.9999 17.408 34.9999 17.2899 34.9999 17.1717C34.9999 14.2594 34.7345 11.4099 34.2256 8.64632ZM14.0116 22.8242V12.1886L23.1495 17.5144L14.0116 22.8242Z" fill="black"/>
</g>
<defs>
<clipPath id="clip0">
<rect width="35" height="35" fill="white"/>
</clipPath>
</defs>
</svg>
