<svg width="41" height="37" viewBox="0 0 41 37" fill="none" xmlns="http://www.w3.org/2000/svg">
<g filter="url(#filter0_d)">
<circle cx="15" cy="20" r="15" fill="#FFB347"/>
</g>
<path fill-rule="evenodd" clip-rule="evenodd" d="M36.3 17.1017C39.2306 14.0734 39.2306 9.16369 36.3 6.13544C33.3694 3.1072 28.6181 3.1072 25.6875 6.13544L17.25 14.8542V25.8334H27.875L36.3 17.1017Z" stroke="#262626" stroke-width="2" stroke-linecap="round" stroke-linejoin="round"/>
<path d="M31 11.625L13.5 29.7083" stroke="#262626" stroke-width="2" stroke-linecap="round" stroke-linejoin="round"/>
<path d="M32.25 20.6665H22.25" stroke="#262626" stroke-width="2" stroke-linecap="round" stroke-linejoin="round"/>
<mask id="mask0" mask-type="alpha" maskUnits="userSpaceOnUse" x="0" y="5" width="30" height="30">
<circle cx="15" cy="20" r="15" fill="#FFB347"/>
</mask>
<g mask="url(#mask0)">
<path fill-rule="evenodd" clip-rule="evenodd" d="M36.3 17.1017C39.2306 14.0734 39.2306 9.16369 36.3 6.13544C33.3694 3.1072 28.6181 3.1072 25.6875 6.13544L17.25 14.8542V25.8334H27.875L36.3 17.1017Z" stroke="#262626" stroke-width="2" stroke-linecap="round" stroke-linejoin="round"/>
<path d="M31 11.625L13.5 29.7083" stroke="#262626" stroke-width="2" stroke-linecap="round" stroke-linejoin="round"/>
<path d="M32.25 20.6665H22.25" stroke="#262626" stroke-width="2" stroke-linecap="round" stroke-linejoin="round"/>
</g>
<defs>
<filter id="filter0_d" x="0" y="5" width="31" height="32" filterUnits="userSpaceOnUse" color-interpolation-filters="sRGB">
<feFlood flood-opacity="0" result="BackgroundImageFix"/>
<feColorMatrix in="SourceAlpha" type="matrix" values="0 0 0 0 0 0 0 0 0 0 0 0 0 0 0 0 0 0 127 0"/>
<feOffset dx="1" dy="2"/>
<feColorMatrix type="matrix" values="0 0 0 0 1 0 0 0 0 0.701961 0 0 0 0 0.278431 0 0 0 0.25 0"/>
<feBlend mode="normal" in2="BackgroundImageFix" result="effect1_dropShadow"/>
<feBlend mode="normal" in="SourceGraphic" in2="effect1_dropShadow" result="shape"/>
</filter>
</defs>
</svg>
